<?xml version="1.0" standalone="no"?>
<!DOCTYPE svg PUBLIC "-//W3C//DTD SVG 20010904//EN"
 "http://www.w3.org/TR/2001/REC-SVG-20010904/DTD/svg10.dtd">
<svg version="1.0" xmlns="http://www.w3.org/2000/svg"
 width="1280.000000pt" height="640.000000pt" viewBox="0 0 1280.000000 640.000000"
 preserveAspectRatio="xMidYMid meet">
<metadata>
Created by potrace 1.15, written by Peter Selinger 2001-2017
</metadata>
<g transform="translate(0.000000,640.000000) scale(0.100000,-0.100000)"
 stroke="none">
<path d="M6240 5531 c-96 -20 -185 -95 -315 -265 -71 -93 -135 -153 -210 -195
-30 -17 -86 -61 -125 -97 -63 -60 -78 -69 -152 -90 -46 -13 -139 -33 -208 -45
-166 -27 -245 -46 -305 -77 -59 -30 -146 -116 -235 -234 l-64 -86 -66 -11
c-62 -10 -67 -13 -132 -81 -37 -38 -75 -71 -85 -71 -10 -1 -78 -3 -151 -4
l-133 -3 -13 27 c-8 14 -36 50 -63 80 l-48 54 3 -83 c3 -50 0 -86 -7 -93 -7
-7 -32 11 -88 66 -58 58 -91 82 -132 97 -29 12 -56 18 -59 15 -3 -3 19 -31 50
-63 31 -31 63 -72 72 -89 l17 -33 -49 0 c-72 0 -144 25 -202 71 -98 77 -138
83 -294 44 -123 -32 -147 -43 -217 -103 -31 -27 -112 -77 -180 -112 -134 -69
-202 -128 -276 -240 -21 -30 -61 -84 -89 -120 -28 -36 -103 -144 -167 -240
-128 -196 -190 -272 -213 -263 -8 3 -36 37 -62 77 l-47 71 -3 -90 -3 -90 -159
0 c-194 0 -214 -10 -100 -51 81 -29 115 -45 143 -68 l28 -23 -166 -106 -165
-106 -12 45 c-17 63 -31 54 -26 -17 4 -50 1 -62 -13 -70 -31 -16 -103 -128
-179 -277 -58 -113 -76 -142 -89 -136 -34 13 -100 16 -135 4 -28 -9 -48 -29
-92 -93 -31 -45 -60 -92 -65 -105 -16 -42 0 -73 48 -94 56 -25 259 -43 314
-28 49 13 83 55 75 92 -5 26 -4 27 22 15 37 -16 43 -27 36 -68 -5 -36 -5 -36
39 -48 52 -15 82 -4 97 34 9 24 10 24 57 10 26 -8 50 -15 53 -15 3 0 5 -28 5
-62 0 -61 0 -62 43 -92 37 -26 55 -31 140 -39 158 -13 169 -13 191 8 12 10 21
24 21 31 0 7 4 15 9 19 13 7 126 -36 114 -44 -20 -14 -52 -69 -63 -109 -9 -35
-8 -53 5 -100 14 -46 29 -68 88 -128 60 -60 91 -80 187 -127 186 -91 267 -108
570 -119 140 -6 279 -10 309 -11 49 0 57 -4 84 -34 35 -40 46 -41 98 -6 33 21
37 28 25 35 -22 12 -20 55 2 62 37 12 85 73 87 113 2 20 7 39 12 40 6 2 41 -8
78 -22 73 -27 114 -32 132 -14 8 8 68 8 225 -2 117 -8 360 -14 540 -14 l328 0
0 -25 c0 -48 21 -61 135 -84 81 -15 314 -33 370 -28 56 5 105 23 131 47 30 28
27 48 -13 95 l-25 31 33 0 c19 0 112 3 208 5 293 9 490 -19 1011 -143 l116
-28 -10 -27 c-9 -27 -13 -28 -77 -28 -80 0 -89 -8 -96 -88 -10 -103 28 -132
169 -132 102 0 128 7 128 31 0 46 49 32 115 -32 66 -63 100 -72 273 -77 l154
-4 14 -33 c7 -18 16 -51 20 -73 6 -35 11 -42 38 -49 25 -6 297 -6 302 0 3 3
-14 102 -20 117 -5 13 15 15 155 12 125 -2 173 1 216 13 164 48 238 172 188
314 -10 31 -11 41 -2 41 7 0 46 5 87 10 64 9 77 8 86 -5 10 -13 19 -14 55 -6
59 14 64 14 49 -4 -8 -9 -9 -15 -2 -15 6 0 13 4 17 9 3 6 18 3 34 -7 24 -14
32 -14 45 -3 9 7 16 26 16 42 0 28 2 29 50 29 48 0 50 -1 50 -28 0 -40 29 -62
149 -116 124 -56 228 -86 293 -86 l47 0 12 -56 c11 -48 18 -60 51 -81 21 -14
38 -30 38 -35 0 -5 5 -6 11 -2 15 9 3 79 -21 125 l-19 37 57 7 c30 4 66 11 79
16 13 5 67 18 119 29 124 26 178 50 204 92 24 39 26 101 5 142 -8 15 -15 29
-15 31 0 1 20 5 45 7 69 8 142 50 261 149 60 50 132 107 161 126 55 37 72 38
138 9 68 -31 142 -56 165 -56 14 0 35 -3 46 -6 21 -6 21 -7 -12 -56 -37 -55
-42 -84 -19 -127 17 -35 60 -51 131 -51 51 0 54 -1 54 -26 0 -24 2 -25 47 -22
39 2 48 7 53 25 3 14 22 31 50 45 79 40 103 126 46 163 -12 8 -58 26 -102 39
l-79 25 51 0 c60 1 73 10 42 28 -22 12 -22 12 10 13 18 0 50 9 72 20 22 11 49
20 60 20 50 0 109 51 130 111 28 79 -16 153 -114 193 l-60 24 57 18 c46 14 61
15 82 6 48 -22 85 -15 121 24 19 19 34 38 34 42 0 4 41 6 92 4 79 -3 130 3
200 24 13 4 17 -3 20 -27 2 -18 8 -34 15 -36 14 -5 32 27 35 61 2 21 9 26 41
31 61 11 98 84 60 117 -10 8 -29 18 -43 21 -14 4 -56 27 -94 52 -38 25 -77 45
-87 45 -10 0 -26 12 -36 26 -44 63 -75 91 -111 102 -49 15 -161 16 -198 2 -22
-9 -29 -8 -36 3 -11 21 -187 258 -260 352 -87 111 -198 226 -292 301 -43 35
-168 151 -277 258 l-199 194 -1 83 0 84 -20 -55 c-10 -30 -23 -58 -28 -63 -9
-9 -106 92 -176 184 -143 189 -221 237 -615 376 -140 49 -163 55 -240 55 -103
1 -175 -19 -258 -70 -82 -51 -97 -65 -178 -162 -40 -47 -83 -96 -97 -109 l-26
-23 -98 65 c-54 35 -113 83 -132 107 -75 94 -209 164 -323 169 -10 1 -16 7
-13 14 2 6 6 46 9 87 l6 75 -18 -40 c-47 -107 -60 -125 -96 -125 -42 0 -68 9
-61 21 13 20 6 157 -10 204 -27 80 -39 87 -47 29 -3 -27 -7 -74 -7 -105 -2
-90 -10 -119 -35 -119 -35 0 -134 66 -271 180 -69 58 -138 111 -153 119 -15 8
-71 21 -125 28 -174 22 -220 61 -367 306 -50 84 -118 183 -152 220 -72 81
-178 158 -257 188 -60 22 -174 33 -231 20z m1392 -4516 c-5 -29 -5 -29 -21 3
-10 19 -9 22 7 22 15 0 18 -5 14 -25z m188 -4 c0 -10 -8 -29 -19 -42 l-18 -23
-17 32 c-23 45 -20 52 19 52 28 0 35 -4 35 -19z"/>
<path d="M613 2455 c-72 -20 -173 -72 -173 -90 0 -20 23 -31 126 -56 123 -30
182 -30 228 1 20 14 39 35 42 48 9 32 -30 72 -70 72 -17 0 -42 9 -56 20 -29
23 -29 23 -97 5z"/>
<path d="M11511 2089 c-40 -8 -46 -14 -100 -102 -51 -82 -48 -101 21 -159 56
-47 153 -78 246 -78 51 0 52 0 52 -30 0 -28 2 -30 38 -30 39 0 99 30 108 54 3
8 1 31 -5 52 -8 30 -8 41 4 54 19 21 19 89 1 113 -8 10 -27 22 -43 26 -16 4
-41 25 -58 49 -16 23 -39 43 -50 46 -39 9 -180 13 -214 5z m307 -324 c-11 -25
-28 -25 -28 0 0 12 13 22 32 24 4 1 3 -10 -4 -24z"/>
<path d="M12171 2040 c-11 -24 -16 -25 -81 -22 l-70 4 0 -35 c0 -39 14 -47 90
-47 35 0 48 -5 58 -20 28 -45 41 13 23 105 -8 40 -8 40 -20 15z"/>
<path d="M1386 1990 c-26 -32 -26 -50 2 -82 11 -14 30 -18 77 -18 72 0 102 17
111 66 5 28 2 32 -29 47 -19 10 -58 17 -85 17 -44 0 -54 -4 -76 -30z"/>
<path d="M10164 1446 c-21 -54 40 -99 129 -94 52 3 52 3 55 39 3 30 -1 37 -25
48 -15 7 -56 16 -90 19 -52 4 -64 2 -69 -12z"/>
<path d="M6215 1423 c-67 -22 -108 -27 -255 -34 -190 -8 -234 -16 -279 -55
-66 -55 -57 -131 23 -200 57 -50 204 -122 295 -145 84 -22 148 -18 378 22 61
10 134 19 162 19 69 0 129 25 138 58 4 17 1 29 -11 37 -9 7 -16 25 -16 41 -1
92 -44 156 -136 199 -41 19 -51 29 -47 43 4 16 -4 21 -41 31 -67 17 -122 13
-211 -16z"/>
<path d="M5309 1167 c-107 -72 -43 -152 132 -163 98 -7 116 1 129 59 12 54 3
73 -45 102 -60 35 -166 36 -216 2z"/>
</g>
</svg>
